# xmcd
# 
# Track frame offsets:
#     150
#     24590
#     51514
#     61627
#     84905
#     114105
#     141747
#     164627
#     183470
#     202575
#     225675
#     238770
#     249345
#     281885
# 
# Disc length: 3972
# 
# Revision: 3
# Processed by: cddbd v1.5.2PL0 Copyright (c) Steve Scherf et al.
# Submitted via: fre:ac v1.0.27
# 
DISCID=c00f820e
DTITLE=Various Artist - Blues From The Heart
DYEAR=0
DGENRE=Blues
TTITLE0=Sugar Ray Feat. The Bluetones - F. Lee Bailey Blues
TTITLE1=Champion Jack Dupree - Lonesome Bedroom
TTITLE2=Ted Hawkins - Cold and Bitter Tears
TTITLE3=Little Mike And The Tornadoes - Rather Be Lying With You Than To You
TTITLE4=Clarence Gatemouth Brown - Sometimes
TTITLE5=Willie Cobbs - Five Long Years
TTITLE6=Calvin Jackson and Mississippi Bound - Hard To Get Along
TTITLE7=Johnny Adams - I Don't Want To Know
TTITLE8=J.B. Hutto and The New Hawks - Eighteen Year Old Girl
TTITLE9=Johnny Copeland - Honky Tonkin'
TTITLE10=Anson Funderburgh and The Rockets Feat. Sam Myers - Change In My Pocket
TTITLE11=Professor Longhair - Every Day, Every Night
TTITLE12=Joe Guitar Hughes - Put It In Writing
TTITLE13=The Holmes Brothers - Promised Land
EXTD=
EXTT0=
EXTT1=
EXTT2=
EXTT3=
EXTT4=
EXTT5=
EXTT6=
EXTT7=
EXTT8=
EXTT9=
EXTT10=
EXTT11=
EXTT12=
EXTT13=
PLAYORDER=
